HIERARCHY
ROOT Hips
{
	OFFSET 0.000000 0.000000 0.000000
	CHANNELS 6 Xposition Yposition Zposition Xrotation Yrotation Zrotation
	JOINT LeftUpLeg_virtual
	{
		OFFSET 0.000000 0.000000 0.000000
		CHANNELS 3 Xrotation Yrotation Zrotation
		JOINT LeftUpLeg
		{
			OFFSET 10.205400 -3.823500 0.155100
			CHANNELS 3 Xrotation Yrotation Zrotation
			JOINT LeftLeg
			{
				OFFSET 0.708757 -12.982077 0.567790
				CHANNELS 3 Xrotation Yrotation Zrotation
				JOINT LeftFoot
				{
					OFFSET -0.708756 -10.717838 -2.184338
					CHANNELS 3 Xrotation Yrotation Zrotation
					JOINT LeftToeBase
					{
						OFFSET 0.108149 -7.191104 7.560241
						CHANNELS 3 Xrotation Yrotation Zrotation
						JOINT LeftToe_End
						{
							OFFSET 0.070230 0.081724 4.490308
							CHANNELS 3 Xrotation Yrotation Zrotation
							End Site
							{
								OFFSET 0 0 0
							}
						}
					}
				}
			}
		}
	}
	JOINT RightUpLeg_virtual
	{
		OFFSET 0.000000 0.000000 0.000000
		CHANNELS 3 Xrotation Yrotation Zrotation
		JOINT RightUpLeg
		{
			OFFSET -10.205400 -3.823500 0.005500
			CHANNELS 3 Xrotation Yrotation Zrotation
			JOINT RightLeg
			{
				OFFSET -0.708756 -12.982134 0.610632
				CHANNELS 3 Xrotation Yrotation Zrotation
				JOINT RightFoot
				{
					OFFSET 0.708754 -10.717769 -1.945823
					CHANNELS 3 Xrotation Yrotation Zrotation
					JOINT RightToeBase
					{
						OFFSET -0.108140 -7.191069 7.372968
						CHANNELS 3 Xrotation Yrotation Zrotation
						JOINT RightToe_End
						{
							OFFSET -0.070227 0.081735 4.479403
							CHANNELS 3 Xrotation Yrotation Zrotation
							End Site
							{
								OFFSET 0 0 0
							}
						}
					}
				}
			}
		}
	}
	JOINT Spine_virtual
	{
		OFFSET 0.000000 0.000000 0.000000
		CHANNELS 3 Xrotation Yrotation Zrotation
		JOINT Spine
		{
			OFFSET 0.000000 6.876099 0.125700
			CHANNELS 3 Xrotation Yrotation Zrotation
			JOINT Spine1
			{
				OFFSET 0.000000 5.730043 0.104720
				CHANNELS 3 Xrotation Yrotation Zrotation
				JOINT Spine1_split
				{
					OFFSET 0.000000 5.730043 0.104720
					CHANNELS 3 Xrotation Yrotation Zrotation
					JOINT Spine2
					{
						OFFSET 0.000000 5.730043 0.104720
						CHANNELS 3 Xrotation Yrotation Zrotation
						JOINT Neck_virtual
						{
							OFFSET 0.000000 0.000000 0.000000
							CHANNELS 3 Xrotation Yrotation Zrotation
							JOINT Neck
							{
								OFFSET 0.000000 10.314075 0.188496
								CHANNELS 3 Xrotation Yrotation Zrotation
								JOINT Head
								{
									OFFSET 0.000000 7.643700 -2.377400
									CHANNELS 3 Xrotation Yrotation Zrotation
									JOINT HeadTop_End
									{
										OFFSET 0.000000 43.788605 -13.619600
										CHANNELS 3 Xrotation Yrotation Zrotation
										End Site
										{
											OFFSET 0 0 0
										}
									}
								}
							}
						}
						JOINT LeftShoulder_virtual
						{
							OFFSET 0.000000 0.000000 0.000000
							CHANNELS 3 Xrotation Yrotation Zrotation
							JOINT LeftShoulder
							{
								OFFSET 2.196100 4.412489 0.087492
								CHANNELS 3 Xrotation Yrotation Zrotation
								JOINT LeftShoulder_split
								{
									OFFSET 2.196100 4.412489 0.087492
									CHANNELS 3 Xrotation Yrotation Zrotation
									JOINT LeftArm
									{
										OFFSET 8.771219 -2.981674 -0.026999
										CHANNELS 3 Xrotation Yrotation Zrotation
										JOINT LeftForeArm
										{
											OFFSET 8.512804 0.000000 -0.000000
											CHANNELS 3 Xrotation Yrotation Zrotation
											JOINT LeftHand
											{
												OFFSET 18.484802 0.000000 -0.000000
												CHANNELS 3 Xrotation Yrotation Zrotation
												End Site
												{
													OFFSET 0 0 0
												}
											}
										}
									}
								}
							}
						}
						JOINT RightShoulder_virtual
						{
							OFFSET 0.000000 0.000000 0.000000
							CHANNELS 3 Xrotation Yrotation Zrotation
							JOINT RightShoulder
							{
								OFFSET -2.196100 4.412496 0.070690
								CHANNELS 3 Xrotation Yrotation Zrotation
								JOINT RightShoulder_split
								{
									OFFSET -2.196100 4.412496 0.070690
									CHANNELS 3 Xrotation Yrotation Zrotation
									JOINT RightArm
									{
										OFFSET -8.771282 -2.981682 -0.094208
										CHANNELS 3 Xrotation Yrotation Zrotation
										JOINT RightForeArm
										{
											OFFSET -8.494598 0.000000 0.000000
											CHANNELS 3 Xrotation Yrotation Zrotation
											JOINT RightHand
											{
												OFFSET -18.483803 0.000000 0.000001
												CHANNELS 3 Xrotation Yrotation Zrotation
												End Site
												{
													OFFSET 0 0 0
												}
											}
										}
									}
								}
							}
						}
					}
				}
			}
		}
	}
}
MOTION
Frames: 6
Frame Time: 0.03333333
-1.768882 28.830154 30.401064 0.000000 0.000000 0.000000 31.445313 13.745381 -8.216873 11.453483 9.132967 -1.225429 3.961831 21.760400 5.351654 -23.833453 2.408338 -26.511518 -21.829023 -9.094919 5.558968 0.000000 0.000000 0.000000 31.445313 13.745381 -8.216873 -80.789410 -12.391526 0.558436 76.080364 -33.630987 -2.737889 -19.011960 -1.143112 1.133980 -7.438271 8.536535 6.470565 0.000000 0.000000 0.000000 31.445313 13.745381 -8.216873 4.870556 0.142090 3.276584 9.757391 0.096158 4.188237 0.000000 0.000000 0.000000 0.000000 0.000000 0.000000 9.757379 0.096151 4.188240 -7.024165 0.658825 -0.591047 -4.707669 0.245716 2.478136 0.000000 0.000000 0.000000 9.757379 0.096151 4.188240 3.226805 -20.189781 5.440795 0.000000 0.000000 0.000000 -45.210911 -21.558427 -43.409861 106.505004 -61.972984 119.184492 0.000000 0.000000 0.000000 9.757379 0.096151 4.188240 1.498024 10.178248 -3.380655 0.000000 0.000000 0.000000 -39.360502 5.475563 40.474236 111.651040 50.909942 -132.294084 0.000000 0.000000 0.000000 
-1.784033 28.729090 30.528713 0.000000 0.000000 0.000000 31.827100 13.719493 -8.279251 10.795677 9.182265 -0.916273 5.321029 21.721842 5.138219 -24.242950 2.435194 -26.964371 -22.403459 -9.239176 5.654031 0.000000 0.000000 0.000000 31.827100 13.719493 -8.279251 -81.589171 -12.646702 0.491635 77.116278 -33.624410 -2.791977 -19.275685 -1.146773 1.014648 -8.094828 8.380851 6.746370 0.000000 0.000000 0.000000 31.827100 13.719493 -8.279251 4.712437 0.142747 3.263691 9.441405 0.085015 4.172060 0.000000 0.000000 0.000000 0.000000 0.000000 0.000000 9.441417 0.085016 4.172061 -7.147132 0.629935 -0.577765 -4.884819 0.126169 2.445930 0.000000 0.000000 0.000000 9.441417 0.085016 4.172061 3.345506 -20.374558 5.851175 0.000000 0.000000 0.000000 -45.404161 -21.632029 -43.071747 105.129602 -62.566227 117.849832 0.000000 0.000000 0.000000 9.441417 0.085016 4.172061 1.512616 10.066765 -3.702985 0.000000 0.000000 0.000000 -39.856862 5.966720 40.669767 110.736628 51.476735 -131.206090 0.000000 0.000000 0.000000 
-1.795521 28.632612 30.651754 0.000000 0.000000 0.000000 32.248581 13.722226 -8.367193 10.092314 9.225538 -0.603034 6.638412 21.682210 4.929420 -24.603187 2.455716 -27.412642 -22.966566 -9.428000 5.735917 0.000000 0.000000 0.000000 32.248581 13.722226 -8.367193 -82.340704 -12.914832 0.404785 78.063987 -33.651550 -2.843468 -19.595919 -1.171348 0.953201 -8.649962 8.281913 6.979467 0.000000 0.000000 0.000000 32.248581 13.722226 -8.367193 4.549545 0.147124 3.264475 9.115773 0.078891 4.180705 0.000000 0.000000 0.000000 0.000000 0.000000 0.000000 9.115794 0.078889 4.180705 -7.260784 0.622992 -0.571326 -5.077529 0.011019 2.406298 0.000000 0.000000 0.000000 9.115794 0.078889 4.180705 3.462207 -20.556783 6.238197 0.000000 0.000000 0.000000 -45.726156 -21.783025 -42.867282 103.432423 -63.200396 116.209071 0.000000 0.000000 0.000000 9.115794 0.078889 4.180705 1.527272 9.940872 -4.054028 0.000000 0.000000 0.000000 -40.408400 6.474585 40.823634 109.704060 52.094990 -130.008184 0.000000 0.000000 0.000000 
-1.804152 28.536133 30.774027 0.000000 0.000000 0.000000 32.679727 13.721769 -8.456410 9.405524 9.260569 -0.302539 7.895132 21.642242 4.727102 -24.915828 2.470320 -27.854623 -23.539011 -9.628057 5.809904 0.000000 0.000000 0.000000 32.679727 13.721769 -8.456410 -83.084040 -13.178493 0.279947 78.987347 -33.593070 -2.886057 -19.920090 -1.200586 0.914448 -9.156575 8.148871 7.163544 0.000000 0.000000 0.000000 32.679727 13.721769 -8.456410 4.384679 0.149982 3.265396 8.786301 0.069155 4.187628 0.000000 0.000000 0.000000 0.000000 0.000000 0.000000 8.786296 0.069157 4.187629 -7.375629 0.638789 -0.570448 -5.283602 -0.097789 2.366243 0.000000 0.000000 0.000000 8.786296 0.069157 4.187629 3.580645 -20.737421 6.622333 0.000000 0.000000 0.000000 -46.132648 -21.954685 -42.797778 101.473921 -63.830693 114.353001 0.000000 0.000000 0.000000 8.786296 0.069157 4.187629 1.543033 9.816510 -4.426545 0.000000 0.000000 0.000000 -40.990188 6.984724 41.013278 108.542313 52.751911 -128.683633 0.000000 0.000000 0.000000 
-1.811855 28.434679 30.898441 0.000000 0.000000 0.000000 33.098666 13.675065 -8.535534 8.776621 9.291014 -0.015145 9.098848 21.598274 4.527651 -25.217408 2.486195 -28.282242 -24.128130 -9.790935 5.885463 0.000000 0.000000 0.000000 33.098666 13.675065 -8.535534 -83.844308 -13.434203 0.144671 79.914552 -33.412049 -2.917976 -20.201244 -1.217875 0.859297 -9.661013 7.943956 7.306239 0.000000 0.000000 0.000000 33.098666 13.675065 -8.535534 4.219780 0.147121 3.252637 8.456747 0.049888 4.168280 0.000000 0.000000 0.000000 0.000000 0.000000 0.000000 8.456730 0.049888 4.168279 -7.475466 0.675859 -0.577672 -5.503584 -0.207916 2.338962 0.000000 0.000000 0.000000 8.456730 0.049888 4.168279 3.700558 -20.916846 7.003173 0.000000 0.000000 0.000000 -46.556444 -22.125447 -42.724957 99.354602 -64.436496 112.357261 0.000000 0.000000 0.000000 8.456730 0.049888 4.168279 1.562809 9.722054 -4.810977 0.000000 0.000000 0.000000 -41.579268 7.494224 41.264011 107.227679 53.443765 -127.192630 0.000000 0.000000 0.000000 
-1.819835 28.324175 31.027443 0.000000 0.000000 0.000000 33.510295 13.575578 -8.618013 8.196096 9.322849 0.281427 10.281639 21.541023 4.324263 -25.554717 2.517671 -28.696838 -24.714302 -9.901394 5.962966 0.000000 0.000000 0.000000 33.510295 13.575578 -8.618013 -84.630804 -13.706080 0.031102 80.860554 -33.171671 -2.945675 -20.448171 -1.218874 0.766104 -10.193184 7.692398 7.442199 0.000000 0.000000 0.000000 33.510295 13.575578 -8.618013 4.051247 0.138818 3.224941 8.119895 0.022531 4.122998 0.000000 0.000000 0.000000 0.000000 0.000000 0.000000 8.119891 0.022532 4.123000 -7.532409 0.728852 -0.600433 -5.741314 -0.331649 2.317627 0.000000 0.000000 0.000000 8.119891 0.022532 4.123000 3.816731 -21.095079 7.355333 0.000000 0.000000 0.000000 -46.951987 -22.334567 -42.484702 97.126444 -65.036481 110.196196 0.000000 0.000000 0.000000 8.119891 0.022532 4.123000 1.589197 9.675228 -5.205946 0.000000 0.000000 0.000000 -42.155443 7.989154 41.531092 105.751259 54.166241 -125.522607 0.000000 0.000000 0.000000 
